<svg xmlns="http://www.w3.org/2000/svg" width="201.66" height="35" viewBox="0 0 201.66 35"><rect class="svg__rect" x="0" y="0" width="117.03" height="35" fill="#E46C17"/><rect class="svg__rect" x="115.03" y="0" width="86.63" height="35" fill="#D35B09"/><path class="svg__text" d="M17.33 22L14.22 22L14.22 13.47L17.14 13.47Q18.59 13.47 19.34 14.05Q20.10 14.63 20.10 15.78L20.10 15.78Q20.10 16.36 19.78 16.83Q19.47 17.30 18.86 17.56L18.86 17.56Q19.55 17.75 19.93 18.26Q20.31 18.78 20.31 19.51L20.31 19.51Q20.31 20.71 19.53 21.36Q18.76 22 17.33 22L17.33 22ZM15.70 18.15L15.70 20.82L17.35 20.82Q18.04 20.82 18.44 20.47Q18.83 20.13 18.83 19.51L18.83 19.51Q18.83 18.18 17.47 18.15L17.47 18.15L15.70 18.15ZM15.70 14.66L15.70 17.06L17.15 17.06Q17.84 17.06 18.23 16.75Q18.62 16.43 18.62 15.86L18.62 15.86Q18.62 15.23 18.26 14.95Q17.90 14.66 17.14 14.66L17.14 14.66L15.70 14.66ZM24.64 19.16L24.64 19.16L24.64 13.47L26.12 13.47L26.12 19.18Q26.12 20.03 26.55 20.48Q26.98 20.93 27.83 20.93L27.83 20.93Q29.54 20.93 29.54 19.13L29.54 19.13L29.54 13.47L31.02 13.47L31.02 19.17Q31.02 20.53 30.15 21.32Q29.28 22.12 27.83 22.12L27.83 22.12Q26.36 22.12 25.50 21.33Q24.64 20.55 24.64 19.16ZM37.15 22L35.67 22L35.67 13.47L37.15 13.47L37.15 22ZM47.32 22L41.96 22L41.96 13.47L43.44 13.47L43.44 20.82L47.32 20.82L47.32 22ZM53.12 14.66L50.49 14.66L50.49 13.47L57.25 13.47L57.25 14.66L54.59 14.66L54.59 22L53.12 22L53.12 14.66ZM68.37 22L66.40 13.47L67.87 13.47L69.20 19.88L70.82 13.47L72.07 13.47L73.68 19.89L74.99 13.47L76.46 13.47L74.49 22L73.07 22L71.45 15.77L69.79 22L68.37 22ZM82.10 22L80.62 22L80.62 13.47L82.10 13.47L82.10 22ZM88.59 14.66L85.95 14.66L85.95 13.47L92.72 13.47L92.72 14.66L90.06 14.66L90.06 22L88.59 22L88.59 14.66ZM97.96 22L96.48 22L96.48 13.47L97.96 13.47L97.96 17.02L101.77 17.02L101.77 13.47L103.25 13.47L103.25 22L101.77 22L101.77 18.21L97.96 18.21L97.96 22Z" fill="#FFFFFF"/><path class="svg__text" d="M128.79 17.80L128.79 17.80Q128.79 16.55 129.39 15.55Q130.00 14.56 131.06 14.00Q132.12 13.43 133.45 13.43L133.45 13.43Q134.78 13.43 135.85 14.00Q136.91 14.56 137.52 15.55Q138.12 16.55 138.12 17.80L138.12 17.80Q138.12 19.05 137.52 20.04Q136.91 21.04 135.85 21.60Q134.79 22.17 133.45 22.17L133.45 22.17Q132.12 22.17 131.06 21.60Q130.00 21.04 129.39 20.04Q128.79 19.05 128.79 17.80ZM131.19 17.80L131.19 17.80Q131.19 18.51 131.49 19.05Q131.79 19.60 132.31 19.90Q132.82 20.20 133.45 20.20L133.45 20.20Q134.09 20.20 134.61 19.90Q135.12 19.60 135.42 19.05Q135.72 18.51 135.72 17.80L135.72 17.80Q135.72 17.09 135.42 16.54Q135.12 16 134.61 15.70Q134.09 15.40 133.45 15.40L133.45 15.40Q132.82 15.40 132.30 15.70Q131.79 16 131.49 16.54Q131.19 17.09 131.19 17.80ZM142.42 17.80L142.42 17.80Q142.42 16.54 143.02 15.54Q143.62 14.55 144.67 13.99Q145.72 13.43 147.04 13.43L147.04 13.43Q148.20 13.43 149.12 13.84Q150.04 14.25 150.66 15.02L150.66 15.02L149.15 16.39Q148.33 15.40 147.17 15.40L147.17 15.40Q146.48 15.40 145.95 15.70Q145.41 16 145.12 16.54Q144.82 17.09 144.82 17.80L144.82 17.80Q144.82 18.51 145.12 19.05Q145.41 19.60 145.95 19.90Q146.48 20.20 147.17 20.20L147.17 20.20Q148.33 20.20 149.15 19.22L149.15 19.22L150.66 20.58Q150.05 21.35 149.12 21.76Q148.20 22.17 147.04 22.17L147.04 22.17Q145.72 22.17 144.67 21.61Q143.62 21.05 143.02 20.05Q142.42 19.06 142.42 17.80ZM156.61 22L154.18 22L157.89 13.60L160.24 13.60L163.95 22L161.49 22L160.82 20.37L157.27 20.37L156.61 22ZM159.05 15.93L157.96 18.61L160.13 18.61L159.05 15.93ZM170.30 22L168.11 22L168.11 13.60L170.06 13.60L173.02 18.45L175.90 13.60L177.85 13.60L177.87 22L175.69 22L175.67 17.55L173.51 21.17L172.45 21.17L170.30 17.67L170.30 22ZM189.42 22L183.04 22L183.04 13.60L185.42 13.60L185.42 20.11L189.42 20.11L189.42 22Z" fill="#FFFFFF" x="128.03"/></svg>